<?xml version="1.0" encoding="UTF-8"?>
<svg id="Layer_1" xmlns="http://www.w3.org/2000/svg" version="1.1" viewBox="0 0 595.28 841.89">
  <!-- Generator: Adobe Illustrator 29.6.1, SVG Export Plug-In . SVG Version: 2.1.1 Build 9)  -->
  <g>
    <path d="M420.7,434.14c.28-2.31,4.07,1.59,6.03,2.85,8.19,5.26,15.35,4.41,18,3.37,4.14-1.63,6.27-7.16,6.15-11.27-.12-3.86,2-43.23.61-45.5-1.01-1.66-4.2-1.77-6.2-.53-4.04,2.52-9.5,8.83-14,10.02-3.78,1.01-12.04-.39-15.83-1.19-6.86-1.45-7.55-17.76-14.34-13.94-8.31,4.68.84,16.74,5.43,21.58,4.31,4.55,13.68,3.49,19.96,4.38,1.2.17,2.16,1.08,2.48,2.25,6.23,22.75.28,9.61-12.17,10.63-4.1.34-7.36,3.59-7.96,7.66-1.49,9.99-4.19,27.9-1.08,33.39,2.46,4.59,11.49,4.39,12.05-1.55,0,0,.86-22.16.86-22.16Z" fill="#1f1f24"/>
    <path d="M433.48,450.21l4.32,34.45c.38,2.12,1.62,4.08,3.55,5.02,4.79,2.33,10.05-.79,9.83-7.66l-3.39-34.15c-.61-4.16-4.62-6.93-8.73-6.03h0c-3.81.84-6.27,4.53-5.58,8.37Z" fill="#1f1f24"/>
    <path d="M433.01,349.18l9.32,28.86c.67,1.75,2,3.9,3.87,3.73,4.5-.4,6.7-.97,5.38-6.83l-6.68-30.1c-1.2-3.47-5.1-5.19-8.48-3.75h0c-3.13,1.34-4.64,4.91-3.42,8.09Z" fill="#1f1f24"/>
    <path d="M437.09,373.41c-8.47-10.11-24.91,1.16-18.51,12.52,8.26,14.67,29.03.03,18.51-12.52Z" fill="#1f1f24"/>
  </g>
  <path d="M123.57,514.55c0,.38,0-.3,0-1.91-.01-24.92-.06-273.74,1.32-310.73.1-2.56,2.2-4.58,4.76-4.58h39.28c1.84-1.69,33.11,32.16,34.8,33.99l267.19,283.23c.99,1.07.95,1.94.38,2.82-.83,1.28-2.33,1.96-3.85,1.96h-4.49s-339.4,0-339.4,0" fill="#1f1f24"/>
  <path d="M303.1,360.43c-24.51-24.51-33.39-61.72-20.25-96.17,11.9-31.18,41.15-53.34,74.36-56.72,56.95-5.79,104.46,41.66,98.78,98.59-3.32,33.23-25.45,62.54-56.64,74.49-34.47,13.21-71.73,4.33-96.26-20.2Z" fill="#1f1f24"/>
</svg>